<svg xmlns="http://www.w3.org/2000/svg" viewBox="0 0 480 96" width="480" height="96">
  <rect width="480" height="96" rx="10" fill="#fcf9f8"/>

  <!-- Document icon -->
  <rect x="18" y="16" width="44" height="56" rx="3" fill="#effdf0" stroke="#2d3930" stroke-width="1.8"/>
  <!-- folded corner -->
  <path d="M 49 16 L 62 29 L 49 29 Z" fill="#fcf9f8" stroke="#2d3930" stroke-width="1.8" stroke-linejoin="round"/>
  <!-- text lines -->
  <line x1="26" y1="42" x2="52" y2="42" stroke="#2d3930" stroke-width="1.4" stroke-linecap="round" opacity=".55"/>
  <line x1="26" y1="51" x2="52" y2="51" stroke="#2d3930" stroke-width="1.4" stroke-linecap="round" opacity=".55"/>
  <line x1="26" y1="60" x2="44" y2="60" stroke="#2d3930" stroke-width="1.4" stroke-linecap="round" opacity=".55"/>

  <!-- CV -->
  <text x="82" y="63" font-family="Georgia,'Times New Roman',serif" font-size="46" font-weight="700" fill="#2d3930" letter-spacing="-1">CV</text>

  <!-- divider -->
  <line x1="154" y1="22" x2="154" y2="72" stroke="#2d3930" stroke-width="1.2" opacity=".22"/>

  <!-- Workspace -->
  <text x="166" y="59" font-family="Georgia,'Times New Roman',serif" font-size="30" fill="#2d3930" opacity=".88">Workspace</text>

  <!-- AI sparkle -->
  <g transform="translate(438,18)" opacity=".7">
    <path d="M9 0 L11 7 L18 9 L11 11 L9 18 L7 11 L0 9 L7 7Z" fill="#2d3930"/>
  </g>
  <g transform="translate(454,30)" opacity=".4">
    <path d="M4 0 L5 3 L8 4 L5 5 L4 8 L3 5 L0 4 L3 3Z" fill="#2d3930"/>
  </g>
</svg>
